<?xml version="1.0" standalone="no"?>
<!DOCTYPE svg PUBLIC "-//W3C//DTD SVG 20010904//EN"
 "http://www.w3.org/TR/2001/REC-SVG-20010904/DTD/svg10.dtd">
<svg version="1.0" xmlns="http://www.w3.org/2000/svg"
 width="16.000000pt" height="16.000000pt" viewBox="0 0 16.000000 16.000000"
 preserveAspectRatio="xMidYMid meet">
<metadata>
Created by potrace 1.11, written by Peter Selinger 2001-2013
</metadata>
<g transform="translate(0.000000,16.000000) scale(0.005128,-0.005128)"
fill="#000000" stroke="none">
<path d="M368 2166 c-62 -17 -116 -59 -139 -110 -17 -38 -19 -73 -19 -506 0
-436 2 -468 19 -507 24 -52 86 -98 152 -112 31 -7 215 -11 489 -11 l440 0 0
115 0 115 -407 1 c-225 1 -419 4 -433 8 -25 7 -25 7 -28 144 l-3 137 436 0
435 0 0 115 0 115 -435 0 -435 0 0 130 0 130 26 10 c15 6 193 10 435 10 l409
0 0 115 0 115 -447 -1 c-327 0 -461 -4 -495 -13z"/>
<path d="M1500 2000 l0 -120 39 0 38 0 44 -120 c33 -91 48 -120 62 -120 16 0
17 18 17 240 l0 240 -100 0 -100 0 0 -120z"/>
<path d="M2077 1629 c-79 -19 -140 -69 -157 -130 -6 -18 -10 -157 -10 -306 l0
-273 115 0 115 0 0 240 0 240 26 10 c14 6 142 10 289 10 147 0 275 -4 289 -10
l26 -10 0 -240 0 -240 120 0 120 0 0 278 c0 248 -2 281 -19 317 -22 48 -53 78
-106 102 -36 16 -78 18 -405 20 -201 1 -382 -3 -403 -8z"/>
</g>
</svg>
