<?xml version="1.0" standalone="no"?>
<!DOCTYPE svg PUBLIC "-//W3C//DTD SVG 20010904//EN"
 "http://www.w3.org/TR/2001/REC-SVG-20010904/DTD/svg10.dtd">
<svg version="1.0" xmlns="http://www.w3.org/2000/svg"
 width="16.000000pt" height="16.000000pt" viewBox="0 0 16.000000 16.000000"
 preserveAspectRatio="xMidYMid meet">
<metadata>
Created by potrace 1.11, written by Peter Selinger 2001-2013
</metadata>
<g transform="translate(0.000000,16.000000) scale(0.005178,-0.005178)"
fill="#000000" stroke="none">
<path d="M1115 2231 c-3 -5 -2 -12 3 -15 5 -3 9 1 9 9 0 17 -3 19 -12 6z"/>
<path d="M573 2205 c0 -8 4 -12 9 -9 5 3 6 10 3 15 -9 13 -12 11 -12 -6z"/>
<path d="M733 2205 c0 -8 4 -12 9 -9 5 3 6 10 3 15 -9 13 -12 11 -12 -6z"/>
<path d="M979 2203 c-13 -17 -13 -17 5 -3 18 14 19 13 12 -5 -6 -16 -5 -18 5
-7 9 8 10 15 3 22 -8 8 -15 5 -25 -7z"/>
<path d="M1075 2211 c-6 -10 11 -24 32 -27 7 -1 15 1 18 6 2 4 -5 7 -18 6 -13
-1 -21 4 -19 12 2 14 -4 16 -13 3z"/>
<path d="M438 2198 c15 -19 44 -17 50 3 2 9 0 10 -5 4 -10 -13 -23 -13 -43 0
-13 7 -13 6 -2 -7z"/>
<path d="M596 2193 c-6 -14 -5 -15 5 -6 7 7 10 15 7 18 -3 3 -9 -2 -12 -12z"/>
<path d="M756 2193 c-6 -14 -5 -15 5 -6 7 7 10 15 7 18 -3 3 -9 -2 -12 -12z"/>
<path d="M624 2188 c4 -14 -1 -16 -32 -12 -44 6 -41 6 -114 0 -32 -2 -56 -1
-54 3 3 4 -7 7 -22 8 -24 2 -25 1 -7 -8 15 -7 12 -8 -17 -5 -20 2 -38 0 -40
-6 -2 -5 -13 -10 -26 -11 -12 0 -22 -4 -22 -8 0 -4 -9 -9 -21 -12 -14 -4 -19
-2 -16 7 3 7 -1 13 -8 13 -7 0 -11 -6 -9 -12 3 -6 -11 -35 -31 -64 -36 -54
-37 -60 -37 -143 0 -35 -5 -48 -17 -51 -14 -4 -14 -5 2 -6 9 0 17 -6 17 -12 0
-5 -6 -7 -12 -3 -9 5 -8 2 1 -9 15 -19 15 -19 -14 -36 -19 -11 -19 -12 3 -6
13 4 22 2 22 -4 0 -6 -7 -11 -15 -11 -8 0 -15 -4 -15 -10 0 -5 7 -7 15 -4 8 4
15 1 15 -5 0 -6 -6 -11 -14 -11 -8 0 -17 -4 -20 -9 -4 -5 3 -7 14 -4 12 3 20
0 20 -6 0 -7 -6 -9 -12 -5 -10 6 -10 4 0 -7 17 -18 15 -27 -6 -32 -16 -4 -16
-5 1 -6 9 0 17 -6 17 -12 0 -5 -6 -7 -12 -3 -10 6 -10 4 -2 -7 13 -16 15 -51
3 -43 -5 2 -6 12 -3 22 5 14 4 14 -4 3 -10 -14 -6 -41 7 -41 4 0 7 -11 7 -24
0 -14 -3 -23 -7 -20 -4 2 -9 -3 -12 -11 -4 -9 -1 -12 7 -9 7 3 13 -2 13 -10 0
-8 -4 -13 -9 -10 -4 3 -8 0 -8 -5 0 -6 3 -11 8 -11 4 0 8 -13 8 -30 1 -16 -2
-30 -7 -30 -5 0 -9 5 -9 12 0 6 -2 9 -5 6 -8 -7 6 -39 14 -33 11 6 7 -287 -3
-304 -6 -10 -5 -12 2 -7 7 4 12 1 12 -9 0 -9 -4 -13 -10 -10 -5 3 -10 1 -10
-4 0 -6 6 -11 13 -11 8 0 7 -4 -3 -10 -10 -6 -11 -10 -3 -10 7 0 22 -22 34
-50 12 -27 25 -47 30 -44 5 3 9 -1 9 -8 0 -12 12 -19 87 -48 19 -7 30 -17 26
-24 -3 -6 0 -6 8 2 16 15 33 16 23 0 -5 -7 -3 -8 7 -2 21 13 49 15 49 4 0 -6
8 -10 18 -10 14 0 15 2 2 10 -11 8 -9 9 13 8 15 -1 27 -6 27 -10 0 -4 5 -8 11
-8 5 0 8 4 5 8 -2 4 13 8 35 8 27 0 38 -4 35 -12 -3 -8 3 -10 16 -6 12 3 16 7
8 12 -6 4 3 7 20 8 19 0 28 -3 24 -10 -5 -7 -2 -8 7 -3 22 14 50 13 45 -1 -3
-7 0 -16 6 -20 7 -4 8 -3 4 4 -4 7 -2 12 4 12 6 0 8 5 5 10 -3 6 -1 10 4 10 6
0 11 -4 11 -10 0 -5 5 -10 11 -10 5 0 8 4 5 8 -2 4 13 8 35 8 27 0 38 -4 35
-12 -3 -8 3 -10 16 -6 13 3 16 7 8 12 -7 4 -2 8 13 8 14 0 28 -7 31 -14 6 -16
-10 -19 -17 -4 -3 6 -4 5 -3 -2 4 -20 31 -15 28 5 -2 9 2 17 8 17 5 0 10 -5
10 -12 0 -9 3 -9 12 0 15 15 48 16 48 1 0 -6 5 -7 13 -2 17 11 67 11 67 1 0
-5 6 -6 12 -1 18 11 68 11 68 0 0 -5 8 -3 17 4 15 12 16 12 10 -6 -6 -17 -5
-18 5 -5 7 9 29 17 47 18 19 2 36 4 37 5 1 1 3 20 5 42 1 22 8 46 13 54 8 11
8 13 -2 7 -9 -6 -12 -1 -10 16 2 12 7 29 12 37 6 10 5 12 -2 7 -8 -5 -11 3 -8
23 4 40 -8 47 -71 45 -29 0 -50 2 -48 6 2 3 -1 12 -7 20 -8 12 -9 12 -4 -2 3
-10 1 -20 -4 -23 -6 -4 -10 2 -10 12 0 15 -2 16 -10 3 -8 -13 -46 -15 -244
-15 -154 0 -232 3 -228 10 3 6 0 5 -9 -1 -20 -15 -181 -12 -187 4 -2 7 -8 12
-13 12 -6 0 -7 -5 -3 -12 4 -7 3 -8 -5 -4 -6 4 -9 12 -6 17 4 5 0 9 -7 9 -10
0 -10 2 1 9 7 5 9 11 4 14 -11 7 -10 137 0 154 4 6 1 14 -5 17 -7 2 -2 4 12 3
14 -1 29 -6 33 -12 5 -6 7 -4 4 5 -2 8 -9 16 -15 16 -7 1 -15 3 -19 4 -5 1
-12 2 -16 1 -5 -1 -6 3 -2 9 5 8 12 7 23 -2 13 -11 15 -11 10 2 -5 13 34 15
308 16 173 0 308 -4 301 -8 -9 -6 -9 -8 0 -8 6 0 14 4 17 9 4 5 39 9 79 9 113
-1 117 0 117 22 0 11 6 20 13 20 7 0 8 3 2 8 -19 14 -17 34 4 27 11 -3 23 0
27 6 4 7 3 9 -4 6 -5 -4 -18 -4 -27 -1 -13 5 -14 8 -3 15 10 7 10 9 1 9 -7 0
-13 4 -13 9 0 5 10 7 23 5 21 -4 21 -4 1 5 -16 7 -21 19 -22 52 -1 23 -4 44
-6 47 -3 2 -21 5 -40 5 -20 1 -36 5 -36 10 0 4 -6 5 -12 0 -7 -4 -23 -8 -36
-8 -17 -1 -21 3 -17 20 3 11 2 14 -1 8 -3 -7 -10 -13 -15 -13 -6 0 -8 4 -5 8
3 5 -1 9 -9 9 -20 0 -19 -7 3 -23 14 -11 8 -12 -40 -11 -52 2 -57 4 -52 21 5
16 4 17 -9 5 -8 -8 -13 -17 -11 -20 2 -3 -4 -6 -12 -6 -8 0 -13 6 -10 13 3 8
-2 10 -16 6 -12 -3 -16 -7 -8 -12 6 -4 -3 -7 -20 -8 -19 0 -28 3 -24 10 5 7 2
8 -7 3 -17 -11 -49 -14 -49 -5 0 15 14 19 29 8 9 -7 13 -8 9 -4 -4 5 -2 16 5
25 10 14 10 14 -3 5 -8 -6 -23 -10 -33 -9 -9 2 -15 -1 -11 -6 3 -5 -5 -9 -18
-10 -22 0 -22 -1 -3 -9 16 -7 14 -9 -12 -7 -38 1 -40 4 -15 24 20 17 -5 6 -27
-11 -15 -11 -81 -16 -81 -5 0 14 14 18 29 7 9 -7 13 -8 9 -4 -4 5 -2 16 5 25
10 14 10 14 -3 5 -8 -6 -23 -10 -33 -9 -9 2 -15 -1 -11 -6 3 -5 0 -9 -6 -9 -6
0 -9 -4 -6 -8 3 -5 -2 -9 -10 -9 -8 0 -13 6 -10 13 3 8 -2 10 -16 6 -13 -3
-16 -7 -8 -12 6 -4 -16 -7 -49 -7 -33 0 -58 4 -55 9 5 7 -11 12 -19 6 -2 -2
-11 3 -20 10 -10 9 -17 10 -22 2 -6 -10 1 -14 20 -10 6 1 4 -4 -3 -12 -11 -11
-14 -10 -22 2 -6 8 -8 21 -5 28 3 8 0 12 -7 10 -7 -3 -13 -10 -13 -16 0 -5 -2
-13 -5 -15 -3 -3 -5 14 -6 39 0 24 4 44 8 44 5 0 7 -4 4 -9 -7 -11 22 -36 31
-27 10 10 11 46 1 40 -5 -4 -7 -13 -4 -21 4 -9 1 -13 -6 -11 -7 3 -13 10 -13
17 0 6 -5 15 -10 19 -11 7 -17 74 -6 68 3 -2 15 8 26 23 18 25 18 25 0 11 -17
-14 -18 -13 -12 3 4 10 7 21 7 23 0 3 5 2 12 -2 7 -5 8 -3 3 6 -5 9 -2 10 14
5 11 -3 21 -2 21 3 0 18 -41 7 -59 -17 -13 -16 -18 -19 -18 -7 0 8 7 18 14 20
8 3 12 10 9 14 -7 11 -1 12 117 16 81 2 97 1 93 -11 -3 -8 -1 -11 5 -8 5 4 18
1 27 -6 15 -12 15 -12 -1 7 -14 17 -15 21 -2 21 8 0 15 -4 15 -9 0 -4 8 -8 18
-8 14 0 15 2 2 10 -8 5 -10 10 -4 10 5 0 16 -6 23 -12 11 -10 13 -10 7 0 -4 6
-2 12 3 12 6 0 11 -8 12 -17 0 -15 2 -15 7 -3 8 17 32 25 32 10 0 -5 5 -10 11
-10 5 0 8 4 5 8 -2 4 6 8 20 8 13 0 24 -4 24 -8 0 -4 8 -8 18 -8 14 0 15 2 2
10 -8 5 -10 10 -4 10 5 0 16 -6 23 -12 11 -10 13 -10 7 0 -4 6 -2 12 3 12 6 0
11 -8 12 -17 0 -15 2 -15 7 -3 8 17 32 25 32 10 0 -5 5 -10 11 -10 5 0 8 4 5
8 -2 4 6 8 20 8 13 0 24 -4 24 -8 0 -4 8 -8 18 -8 14 0 15 2 2 10 -8 5 -10 10
-4 10 5 0 16 -6 23 -12 11 -10 13 -10 7 0 -4 6 -2 12 3 12 6 0 11 -8 12 -17 0
-15 2 -15 7 -3 8 17 32 25 32 10 0 -5 5 -10 11 -10 5 0 8 4 5 8 -2 4 6 8 20 8
13 0 24 -4 24 -8 0 -4 5 -8 11 -8 5 0 7 6 3 13 -5 7 0 6 11 -3 10 -8 16 -10
12 -3 -5 7 5 11 29 11 20 0 41 6 48 12 8 10 8 11 -1 6 -9 -5 -13 0 -13 14 0
12 5 18 10 15 5 -3 10 -1 10 4 0 6 -5 11 -11 11 -12 0 -9 49 4 68 6 7 6 12 0
12 -5 0 -10 11 -11 26 -1 14 2 23 7 19 5 -3 13 0 17 6 4 8 3 9 -5 5 -6 -4 -14
0 -18 11 -10 27 -14 28 -106 27 -47 0 -84 3 -81 7 2 4 0 10 -5 13 -5 4 -13 1
-17 -5 -5 -8 -3 -9 6 -4 8 5 11 4 7 -1 -7 -12 -327 -12 -346 0 -9 6 -12 5 -8
0 9 -16 -64 -9 -75 7 -8 11 -9 11 -4 -3z"/>
<path d="M833 2193 c9 -8 56 -13 60 -6 3 5 -10 9 -29 9 -19 1 -33 0 -31 -3z"/>
<path d="M1190 2190 c0 -5 5 -10 11 -10 5 0 7 5 4 10 -3 6 -8 10 -11 10 -2 0
-4 -4 -4 -10z"/>
<path d="M1270 2166 c0 -2 8 -10 18 -17 15 -13 16 -12 3 4 -13 16 -21 21 -21
13z"/>
<path d="M1495 2151 c-3 -5 -2 -12 3 -15 5 -3 9 1 9 9 0 17 -3 19 -12 6z"/>
<path d="M1566 2132 c-3 -6 0 -13 6 -15 10 -4 10 -6 0 -6 -7 -1 -23 4 -34 10
-11 6 -18 7 -14 1 3 -6 -14 -9 -44 -7 -28 1 -53 -2 -57 -8 -3 -6 -2 -7 4 -4 6
4 10 -6 11 -23 0 -17 -5 -30 -11 -30 -8 0 -8 -3 -2 -8 11 -8 15 -133 4 -126
-4 2 -2 -7 4 -21 7 -14 15 -25 19 -25 4 0 5 -8 1 -17 -5 -17 -5 -17 8 -1 14
17 53 19 55 2 0 -5 6 -22 12 -37 7 -16 10 -33 6 -38 -3 -5 0 -9 5 -9 6 0 10
-3 9 -7 -1 -5 3 -18 10 -30 6 -12 14 -30 16 -40 10 -46 19 -61 40 -65 19 -4
21 -1 18 30 -3 22 1 37 9 43 9 6 10 9 2 9 -6 0 -11 13 -11 29 1 23 5 28 19 26
10 -2 21 0 24 4 2 5 -5 8 -17 7 -12 0 -23 5 -26 13 -2 8 0 11 5 8 5 -3 9 3 9
13 0 10 -4 16 -8 14 -4 -3 -8 0 -8 5 0 6 5 11 10 11 6 0 10 5 10 11 0 5 -4 8
-8 5 -4 -2 -8 6 -8 19 0 13 4 21 8 19 4 -3 8 0 8 5 0 6 -6 11 -12 11 -9 0 -8
4 2 10 9 6 10 10 3 10 -17 0 -12 62 7 78 13 11 13 11 0 7 -20 -7 -24 32 -7 54
10 12 9 13 -2 6 -11 -6 -13 -3 -9 13 5 18 2 22 -17 22 -13 0 -28 7 -33 16 -6
10 -12 13 -16 6z"/>
<path d="M1276 2112 c-3 -5 1 -9 9 -9 8 0 12 4 9 9 -3 4 -7 8 -9 8 -2 0 -6 -4
-9 -8z"/>
<path d="M177 2086 c-4 -10 -1 -13 8 -9 8 3 12 9 9 14 -7 12 -11 11 -17 -5z"/>
<path d="M156 2043 c-6 -14 -5 -15 5 -6 7 7 10 15 7 18 -3 3 -9 -2 -12 -12z"/>
<path d="M1645 2049 c-4 -6 -5 -12 -2 -15 2 -3 7 2 10 11 7 17 1 20 -8 4z"/>
<path d="M1656 1992 c-3 -4 4 -9 15 -9 23 -2 25 3 4 10 -8 4 -16 3 -19 -1z"/>
<path d="M137 1976 c-4 -10 -3 -15 3 -11 6 3 10 1 10 -6 0 -7 3 -10 6 -6 3 3
2 13 -4 22 -8 16 -9 16 -15 1z"/>
<path d="M1645 1950 c-3 -5 -1 -10 4 -10 6 0 11 5 11 10 0 6 -2 10 -4 10 -3 0
-8 -4 -11 -10z"/>
<path d="M1670 1956 c0 -2 7 -7 16 -10 8 -3 12 -2 9 4 -6 10 -25 14 -25 6z"/>
<path d="M130 1936 c0 -2 7 -7 16 -10 8 -3 12 -2 9 4 -6 10 -25 14 -25 6z"/>
<path d="M490 1926 c0 -2 7 -7 16 -10 8 -3 12 -2 9 4 -6 10 -25 14 -25 6z"/>
<path d="M588 1923 c7 -3 16 -2 19 1 4 3 -2 6 -13 5 -11 0 -14 -3 -6 -6z"/>
<path d="M800 1926 c0 -2 8 -10 18 -17 15 -13 16 -12 3 4 -13 16 -21 21 -21
13z"/>
<path d="M960 1926 c0 -2 8 -10 18 -17 15 -13 16 -12 3 4 -13 16 -21 21 -21
13z"/>
<path d="M130 1910 c0 -5 5 -10 11 -10 5 0 7 5 4 10 -3 6 -8 10 -11 10 -2 0
-4 -4 -4 -10z"/>
<path d="M750 1910 c0 -5 5 -10 11 -10 5 0 7 5 4 10 -3 6 -8 10 -11 10 -2 0
-4 -4 -4 -10z"/>
<path d="M910 1910 c0 -5 5 -10 11 -10 5 0 7 5 4 10 -3 6 -8 10 -11 10 -2 0
-4 -4 -4 -10z"/>
<path d="M1070 1910 c0 -5 5 -10 11 -10 5 0 7 5 4 10 -3 6 -8 10 -11 10 -2 0
-4 -4 -4 -10z"/>
<path d="M1119 1918 c-6 -21 -5 -37 2 -32 5 3 6 10 3 16 -5 8 -1 9 10 5 10 -4
15 -3 11 3 -5 9 -24 14 -26 8z"/>
<path d="M476 1893 c-6 -14 -5 -15 5 -6 7 7 10 15 7 18 -3 3 -9 -2 -12 -12z"/>
<path d="M710 1906 c0 -2 8 -10 18 -17 15 -13 16 -12 3 4 -13 16 -21 21 -21
13z"/>
<path d="M793 1895 c0 -8 4 -12 9 -9 5 3 6 10 3 15 -9 13 -12 11 -12 -6z"/>
<path d="M870 1906 c0 -2 8 -10 18 -17 15 -13 16 -12 3 4 -13 16 -21 21 -21
13z"/>
<path d="M953 1895 c0 -8 4 -12 9 -9 5 3 6 10 3 15 -9 13 -12 11 -12 -6z"/>
<path d="M1030 1906 c0 -2 8 -10 18 -17 15 -13 16 -12 3 4 -13 16 -21 21 -21
13z"/>
<path d="M610 1889 c0 -5 5 -7 10 -4 6 3 10 8 10 11 0 2 -4 4 -10 4 -5 0 -10
-5 -10 -11z"/>
<path d="M130 1850 c0 -5 5 -10 11 -10 5 0 7 5 4 10 -3 6 -8 10 -11 10 -2 0
-4 -4 -4 -10z"/>
<path d="M434 1838 c-19 -23 -19 -23 2 -5 11 9 24 14 29 10 4 -5 5 -2 1 5 -9
16 -10 16 -32 -10z"/>
<path d="M1486 1848 c3 -4 0 -8 -7 -8 -7 0 -9 -3 -6 -7 4 -3 3 -11 -1 -18 -4
-6 0 -3 9 7 14 14 18 15 22 4 3 -7 1 -18 -4 -23 -5 -5 -1 -9 10 -9 18 0 18 3
6 27 -8 14 -12 29 -10 31 3 3 -2 5 -10 5 -8 0 -12 -4 -9 -9z"/>
<path d="M400 1814 c0 -6 7 -19 16 -30 14 -18 14 -18 3 6 -14 31 -19 36 -19
24z"/>
<path d="M130 1730 c0 -5 5 -10 11 -10 5 0 7 5 4 10 -3 6 -8 10 -11 10 -2 0
-4 -4 -4 -10z"/>
<path d="M1645 1730 c-3 -6 1 -7 9 -4 18 7 21 14 7 14 -6 0 -13 -4 -16 -10z"/>
<path d="M460 1706 c7 -7 13 -7 20 0 6 6 3 10 -10 10 -13 0 -16 -4 -10 -10z"/>
<path d="M596 1712 c-3 -5 1 -9 9 -9 8 0 12 4 9 9 -3 4 -7 8 -9 8 -2 0 -6 -4
-9 -8z"/>
<path d="M916 1712 c-3 -5 1 -9 9 -9 8 0 12 4 9 9 -3 4 -7 8 -9 8 -2 0 -6 -4
-9 -8z"/>
<path d="M1167 1709 c7 -7 15 -10 18 -7 3 3 -2 9 -12 12 -14 6 -15 5 -6 -5z"/>
<path d="M2216 1697 c3 -10 9 -15 12 -12 3 3 0 11 -7 18 -10 9 -11 8 -5 -6z"/>
<path d="M116 1692 c-3 -5 1 -9 9 -9 8 0 12 4 9 9 -3 4 -7 8 -9 8 -2 0 -6 -4
-9 -8z"/>
<path d="M510 1689 c0 -5 5 -7 10 -4 6 3 10 8 10 11 0 2 -4 4 -10 4 -5 0 -10
-5 -10 -11z"/>
<path d="M546 1689 c3 -5 0 -9 -7 -9 -7 0 -9 -3 -6 -6 4 -4 13 -2 21 5 10 8
16 9 19 1 3 -6 5 -6 3 1 -1 7 -10 13 -19 15 -9 1 -15 -2 -11 -7z"/>
<path d="M886 1687 c3 -10 9 -15 12 -12 3 3 0 11 -7 18 -10 9 -11 8 -5 -6z"/>
<path d="M1020 1696 c0 -2 8 -10 18 -17 15 -13 16 -12 3 4 -13 16 -21 21 -21
13z"/>
<path d="M1126 1688 c3 -4 9 -8 15 -8 5 0 9 4 9 8 0 5 -7 9 -15 9 -8 0 -12 -4
-9 -9z"/>
<path d="M2169 1687 c6 -8 7 -18 3 -22 -4 -5 -1 -5 6 -1 10 6 10 11 1 22 -6 8
-14 14 -16 14 -3 0 0 -6 6 -13z"/>
<path d="M2294 1686 c5 -14 3 -17 -11 -12 -15 6 -16 5 -5 -5 17 -18 35 1 21
21 -9 12 -10 12 -5 -4z"/>
<path d="M2335 1690 c-3 -5 -1 -10 4 -10 6 0 11 5 11 10 0 6 -2 10 -4 10 -3 0
-8 -4 -11 -10z"/>
<path d="M2686 1688 c3 -5 10 -6 15 -3 13 9 11 12 -6 12 -8 0 -12 -4 -9 -9z"/>
<path d="M2034 1665 c-4 -8 -10 -12 -15 -9 -5 3 -6 -1 -3 -9 3 -8 -1 -14 -10
-14 -8 0 -13 4 -10 9 3 4 -2 5 -10 2 -9 -3 -13 -10 -10 -15 3 -5 -4 -9 -16 -9
-19 0 -109 -85 -110 -103 0 -5 -6 -5 -12 -1 -10 6 -10 4 -2 -7 7 -8 8 -22 3
-34 -4 -11 -8 -14 -8 -6 -1 8 -4 11 -7 8 -4 -4 -1 -13 6 -22 7 -8 8 -15 2 -15
-16 0 -23 -30 -12 -48 9 -14 10 -13 5 5 -3 12 -2 24 3 27 11 7 9 -195 -2 -213
-6 -9 -5 -12 1 -8 6 4 9 -30 9 -88 0 -52 -3 -92 -8 -89 -4 3 -4 -7 2 -21 5
-14 9 -29 9 -33 -6 -35 3 -52 26 -52 14 0 25 -4 25 -10 0 -5 5 -10 11 -10 5 0
7 4 4 10 -10 16 56 5 67 -11 8 -11 9 -10 4 4 -4 12 0 17 13 17 11 0 22 -6 24
-12 4 -10 6 -10 6 0 1 6 10 12 21 12 23 0 22 -8 22 175 0 94 4 136 14 150 9
13 14 15 14 6 0 -8 3 -11 6 -8 4 4 2 13 -4 20 -7 8 -8 18 -4 22 4 5 1 5 -6 1
-7 -4 -10 -11 -8 -15 3 -4 1 -13 -3 -20 -4 -7 -7 21 -6 61 1 58 4 74 17 76 9
2 19 -2 23 -9 5 -8 0 -9 -16 -4 -17 4 -20 3 -10 -3 11 -8 11 -10 0 -14 -8 -3
2 -5 21 -5 19 0 29 2 22 5 -10 3 -10 7 -1 18 6 8 10 14 8 15 -2 0 -15 3 -28 5
-14 2 -27 7 -30 10 -8 7 54 -2 68 -10 5 -4 13 -1 17 5 4 7 3 9 -4 5 -6 -3 -13
-3 -16 2 -2 4 11 8 30 8 33 0 44 -9 25 -20 -5 -4 -11 -1 -13 6 -3 8 -6 7 -10
-3 -4 -11 1 -15 22 -14 19 0 26 4 23 15 -4 13 7 16 56 16 33 1 58 -3 55 -8 -3
-4 0 -8 5 -8 6 0 11 4 11 9 0 4 20 8 45 7 25 0 45 -4 45 -8 0 -5 5 -8 11 -8 5
0 8 3 6 8 -3 4 26 8 64 8 65 1 74 -2 70 -28 0 -4 6 -5 14 -2 8 4 15 12 15 19
0 7 7 12 15 11 19 -3 23 -12 11 -23 -5 -5 -6 -2 -1 6 5 10 4 12 -4 7 -6 -4 -9
-12 -6 -17 4 -5 1 -9 -6 -9 -7 0 -10 -3 -6 -6 3 -3 20 4 36 16 26 18 30 18 24
4 -4 -10 -2 -15 3 -11 6 3 10 -11 9 -33 0 -34 -2 -37 -16 -24 -26 23 -32 16
-7 -8 28 -28 36 -53 13 -45 -8 4 -15 2 -15 -3 0 -6 7 -10 15 -10 8 0 15 -5 15
-11 0 -5 -6 -7 -12 -3 -10 6 -10 4 0 -7 6 -7 12 -18 12 -23 0 -6 -5 -4 -10 4
-8 13 -10 12 -10 -2 0 -10 4 -18 8 -18 5 0 9 -7 9 -15 0 -13 -4 -12 -20 2 -19
18 -19 17 -6 -4 8 -13 16 -23 20 -23 3 0 5 -25 6 -56 0 -33 -3 -50 -8 -42 -7
10 -9 9 -9 -4 0 -10 4 -18 8 -18 4 0 9 -11 10 -25 1 -14 -4 -25 -11 -25 -9 0
-8 -3 1 -9 8 -4 13 -11 13 -15 -6 -40 0 -46 39 -46 23 0 40 -5 40 -11 0 -8 4
-8 13 0 14 11 47 8 69 -5 7 -4 8 -3 4 4 -5 8 5 12 32 12 37 0 39 1 34 26 -3
19 -1 25 7 20 6 -4 8 -13 5 -19 -4 -7 -3 -9 1 -4 13 11 13 46 0 41 -7 -3 -11
11 -11 39 1 28 5 43 12 40 6 -2 11 3 11 11 0 8 -5 12 -11 10 -13 -5 -16 374
-3 394 5 7 4 11 -1 10 -6 -2 -10 2 -10 7 0 6 4 9 9 7 6 -1 5 7 -1 18 -12 23
-22 27 -14 5 9 -24 -2 -18 -21 12 -15 22 -15 25 -2 20 11 -4 14 -2 11 7 -3 8
-14 12 -27 8 -21 -5 -21 -4 3 24 18 20 19 24 4 11 -25 -21 -43 -22 -50 -2 -4
8 -10 12 -15 9 -5 -3 -9 -1 -9 4 0 5 -14 9 -31 10 -18 0 -36 5 -42 11 -7 7 -4
9 11 6 12 -2 22 0 22 4 0 5 -13 8 -29 7 -16 0 -27 -4 -25 -8 3 -5 1 -8 -5 -8
-5 0 -12 8 -14 18 -4 14 -5 14 -6 1 -1 -12 -12 -16 -41 -16 -22 0 -40 4 -40 9
0 5 5 6 12 2 7 -5 8 -3 3 6 -6 10 -11 10 -20 -3 -14 -20 -30 -23 -19 -4 6 10
4 10 -7 0 -16 -16 -29 -17 -29 -2 0 5 4 8 8 5 5 -3 9 1 9 9 0 22 -15 18 -22
-5 -7 -23 -16 -25 -34 -7 -11 10 -13 10 -7 0 4 -7 3 -13 -3 -13 -5 0 -12 8
-14 18 -4 14 -5 14 -6 1 -1 -13 -12 -16 -56 -15 -30 0 -55 4 -55 8 0 5 -5 8
-11 8 -5 0 -8 -4 -5 -8 3 -5 -2 -9 -10 -9 -8 0 -13 6 -10 14 5 11 2 11 -17 1
-28 -15 -47 -19 -47 -8 0 4 -7 11 -16 14 -13 5 -14 3 -6 -7 9 -10 6 -13 -11
-12 -12 0 -28 4 -36 9 -9 6 -12 5 -8 -1 9 -14 -126 -12 -135 1 -5 7 -8 7 -8
-1 0 -7 -5 -13 -10 -13 -7 0 -7 6 0 20 6 11 8 20 5 20 -3 0 -8 -7 -11 -15z"/>
<path d="M2146 1667 c3 -10 9 -15 12 -12 3 3 0 11 -7 18 -10 9 -11 8 -5 -6z"/>
<path d="M2377 1669 c7 -7 15 -10 18 -7 3 3 -2 9 -12 12 -14 6 -15 5 -6 -5z"/>
<path d="M2455 1670 c3 -5 8 -10 11 -10 2 0 4 5 4 10 0 6 -5 10 -11 10 -5 0
-7 -4 -4 -10z"/>
<path d="M2515 1670 c3 -5 8 -10 11 -10 2 0 4 5 4 10 0 6 -5 10 -11 10 -5 0
-7 -4 -4 -10z"/>
<path d="M2210 1659 c0 -5 5 -7 10 -4 6 3 10 8 10 11 0 2 -4 4 -10 4 -5 0 -10
-5 -10 -11z"/>
<path d="M2420 1660 c8 -5 20 -10 25 -10 6 0 3 5 -5 10 -8 5 -19 10 -25 10 -5
0 -3 -5 5 -10z"/>
<path d="M2815 1650 c-2 -3 5 -7 16 -7 10 -1 19 2 19 6 0 9 -29 10 -35 1z"/>
<path d="M136 1607 c5 -14 2 -16 -12 -11 -16 5 -16 4 -4 -5 20 -14 39 4 21 22
-10 10 -11 9 -5 -6z"/>
<path d="M1268 1608 c10 -13 10 -17 0 -21 -8 -4 -7 -6 5 -6 9 -1 17 3 17 8 0
5 -8 15 -17 22 -16 13 -17 12 -5 -3z"/>
<path d="M2915 1590 c-3 -5 -1 -10 4 -10 6 0 11 5 11 10 0 6 -2 10 -4 10 -3 0
-8 -4 -11 -10z"/>
<path d="M1863 1573 c1 -17 4 -19 14 -11 15 12 18 22 4 14 -5 -4 -11 0 -14 6
-3 7 -4 3 -4 -9z"/>
<path d="M115 1550 c-3 -5 -1 -10 4 -10 6 0 11 5 11 10 0 6 -2 10 -4 10 -3 0
-8 -4 -11 -10z"/>
<path d="M136 1507 c3 -10 9 -15 12 -12 3 3 0 11 -7 18 -10 9 -11 8 -5 -6z"/>
<path d="M130 1430 c0 -5 5 -10 11 -10 5 0 7 5 4 10 -3 6 -8 10 -11 10 -2 0
-4 -4 -4 -10z"/>
<path d="M2935 1430 c-3 -5 -1 -10 4 -10 6 0 11 5 11 10 0 6 -2 10 -4 10 -3 0
-8 -4 -11 -10z"/>
<path d="M535 1409 c-4 -6 -4 -13 -1 -16 3 -4 6 -1 6 6 0 7 5 9 12 5 7 -4 8
-3 4 4 -9 15 -13 15 -21 1z"/>
<path d="M624 1404 c-18 -15 -18 -15 2 -5 12 6 25 7 29 3 5 -4 5 -1 1 6 -9 15
-8 15 -32 -4z"/>
<path d="M674 1406 c1 -8 5 -18 8 -22 4 -3 5 1 4 10 -1 8 -5 18 -8 22 -4 3 -5
-1 -4 -10z"/>
<path d="M725 1410 c-3 -5 -1 -10 5 -10 6 0 8 -5 4 -12 -4 -7 -3 -8 4 -4 6 4
9 13 5 21 -6 18 -10 19 -18 5z"/>
<path d="M790 1416 c0 -2 7 -7 16 -10 8 -3 12 -2 9 4 -6 10 -25 14 -25 6z"/>
<path d="M830 1409 c0 -5 5 -7 10 -4 6 3 10 8 10 11 0 2 -4 4 -10 4 -5 0 -10
-5 -10 -11z"/>
<path d="M870 1411 c0 -6 4 -12 8 -15 5 -3 9 1 9 9 0 8 -4 15 -9 15 -4 0 -8
-4 -8 -9z"/>
<path d="M937 1401 c-4 -17 -3 -21 5 -13 5 5 8 16 6 23 -3 8 -7 3 -11 -10z"/>
<path d="M970 1413 c0 -1 8 -7 18 -12 13 -7 19 -6 19 2 0 7 -9 13 -19 13 -10
0 -18 -1 -18 -3z"/>
<path d="M1074 1411 c4 -5 1 -12 -4 -14 -6 -3 -5 -4 2 -3 15 3 23 26 8 26 -6
0 -9 -4 -6 -9z"/>
<path d="M1106 1411 c-3 -5 2 -8 12 -7 9 0 16 -5 14 -12 -1 -8 2 -11 8 -7 8 5
7 11 -1 21 -13 16 -25 18 -33 5z"/>
<path d="M450 1406 c0 -3 9 -10 19 -16 15 -7 22 -7 27 2 4 7 4 10 -1 6 -4 -4
-16 -3 -26 3 -11 5 -19 7 -19 5z"/>
<path d="M2255 1400 c-3 -5 -1 -10 4 -10 6 0 11 5 11 10 0 6 -2 10 -4 10 -3 0
-8 -4 -11 -10z"/>
<path d="M2394 1399 c-3 -6 -1 -16 5 -22 9 -9 10 -7 5 8 -7 18 -6 19 12 5 18
-14 18 -14 5 3 -16 20 -18 20 -27 6z"/>
<path d="M2496 1398 c3 -5 10 -6 15 -3 13 9 11 12 -6 12 -8 0 -12 -4 -9 -9z"/>
<path d="M2556 1397 c3 -10 9 -15 12 -12 3 3 0 11 -7 18 -10 9 -11 8 -5 -6z"/>
<path d="M2296 1391 c-3 -5 2 -15 12 -22 15 -12 16 -12 5 2 -7 9 -10 19 -6 22
3 4 4 7 0 7 -3 0 -8 -4 -11 -9z"/>
<path d="M2459 1398 c-6 -21 -5 -37 2 -32 5 3 7 9 4 14 -3 4 1 11 7 13 10 4
10 6 1 6 -7 1 -13 0 -14 -1z"/>
<path d="M2530 1390 c0 -5 5 -10 11 -10 5 0 7 5 4 10 -3 6 -8 10 -11 10 -2 0
-4 -4 -4 -10z"/>
<path d="M2353 1375 c0 -8 4 -12 9 -9 5 3 6 10 3 15 -9 13 -12 11 -12 -6z"/>
<path d="M130 1370 c0 -5 5 -10 11 -10 5 0 7 5 4 10 -3 6 -8 10 -11 10 -2 0
-4 -4 -4 -10z"/>
<path d="M456 1363 c-6 -14 -5 -15 5 -6 7 7 10 15 7 18 -3 3 -9 -2 -12 -12z"/>
<path d="M2250 1371 c0 -6 4 -13 10 -16 6 -3 7 1 4 9 -7 18 -14 21 -14 7z"/>
<path d="M2635 1363 c-18 -14 -18 -15 -1 -9 10 3 24 2 31 -4 10 -9 13 -7 11 6
-4 24 -17 26 -41 7z"/>
<path d="M410 1355 c-11 -13 -10 -14 4 -9 9 3 16 10 16 15 0 13 -6 11 -20 -6z"/>
<path d="M2954 1359 c-3 -6 -2 -15 3 -20 5 -5 9 -1 9 11 0 23 -2 24 -12 9z"/>
<path d="M1801 1346 c-15 -18 5 -34 22 -17 9 9 7 10 -8 5 -18 -7 -18 -6 -6 9
7 9 11 17 8 17 -2 0 -10 -6 -16 -14z"/>
<path d="M141 1341 c-8 -5 -9 -11 -3 -15 5 -3 12 1 16 9 6 17 6 18 -13 6z"/>
<path d="M406 1303 c-6 -14 -5 -15 5 -6 7 7 10 15 7 18 -3 3 -9 -2 -12 -12z"/>
<path d="M433 1299 c-2 -23 3 -25 10 -4 4 8 3 16 -1 19 -4 3 -9 -4 -9 -15z"/>
<path d="M2075 1310 c-3 -5 -1 -10 4 -10 6 0 11 5 11 10 0 6 -2 10 -4 10 -3 0
-8 -4 -11 -10z"/>
<path d="M145 1300 c-4 -6 -11 -7 -17 -4 -7 4 -8 2 -4 -5 6 -9 11 -9 22 0 14
11 18 19 10 19 -3 0 -8 -5 -11 -10z"/>
<path d="M2935 1290 c-3 -6 1 -7 9 -4 18 7 21 14 7 14 -6 0 -13 -4 -16 -10z"/>
<path d="M405 1270 c-3 -5 -1 -10 4 -10 6 0 11 5 11 10 0 6 -2 10 -4 10 -3 0
-8 -4 -11 -10z"/>
<path d="M2946 1272 c-3 -5 1 -9 9 -9 8 0 12 4 9 9 -3 4 -7 8 -9 8 -2 0 -6 -4
-9 -8z"/>
<path d="M137 1259 c7 -7 15 -10 18 -7 3 3 -2 9 -12 12 -14 6 -15 5 -6 -5z"/>
<path d="M435 1261 c4 -8 2 -17 -6 -22 -9 -6 -10 -9 -2 -9 19 0 27 21 13 33
-10 9 -11 9 -5 -2z"/>
<path d="M1799 1258 c-4 -12 -3 -76 1 -72 5 6 9 74 3 74 -1 0 -3 -1 -4 -2z"/>
<path d="M140 1231 c0 -6 4 -13 10 -16 6 -3 7 1 4 9 -7 18 -14 21 -14 7z"/>
<path d="M408 1217 c7 -8 10 -16 9 -18 -2 -2 5 -12 16 -23 11 -10 17 -12 13
-5 -3 8 -9 22 -12 31 -3 9 -13 19 -21 23 -12 4 -13 3 -5 -8z"/>
<path d="M2090 1221 c0 -7 -4 -9 -10 -6 -5 3 -10 1 -10 -4 0 -6 4 -11 9 -11
13 0 25 20 17 27 -3 4 -6 1 -6 -6z"/>
<path d="M451 1204 c0 -11 3 -14 6 -6 3 7 2 16 -1 19 -3 4 -6 -2 -5 -13z"/>
<path d="M472 1205 c4 -4 3 -14 -4 -22 -6 -7 -9 -15 -7 -18 3 -2 10 4 17 15 9
15 9 21 -1 26 -6 4 -9 4 -5 -1z"/>
<path d="M995 1199 c-4 -6 -5 -12 -2 -15 2 -3 7 2 10 11 7 17 1 20 -8 4z"/>
<path d="M1235 1199 c-4 -6 -5 -12 -2 -15 2 -3 7 2 10 11 7 17 1 20 -8 4z"/>
<path d="M107 1189 c7 -7 15 -10 18 -7 3 3 -2 9 -12 12 -14 6 -15 5 -6 -5z"/>
<path d="M140 1189 c0 -5 5 -7 10 -4 6 3 10 8 10 11 0 2 -4 4 -10 4 -5 0 -10
-5 -10 -11z"/>
<path d="M496 1185 c-9 -26 -7 -32 5 -12 6 10 9 21 6 23 -2 3 -7 -2 -11 -11z"/>
<path d="M734 1189 c-3 -6 -2 -15 4 -21 6 -6 12 -6 17 3 6 8 4 10 -5 4 -10 -6
-12 -4 -7 8 7 19 2 23 -9 6z"/>
<path d="M1073 1179 c-2 -23 3 -25 10 -4 4 8 3 16 -1 19 -4 3 -9 -4 -9 -15z"/>
<path d="M1194 1192 c3 -6 -2 -15 -11 -21 -10 -6 -13 -11 -7 -11 20 0 37 27
23 36 -7 4 -9 3 -5 -4z"/>
<path d="M570 1186 c0 -2 7 -9 15 -16 9 -7 15 -8 15 -2 0 5 -7 12 -15 16 -8 3
-15 4 -15 2z"/>
<path d="M630 1186 c0 -2 7 -9 15 -16 13 -11 14 -10 9 4 -5 14 -24 23 -24 12z"/>
<path d="M700 1181 c0 -6 4 -13 10 -16 6 -3 7 1 4 9 -7 18 -14 21 -14 7z"/>
<path d="M791 1183 c-1 -17 16 -25 25 -12 4 7 3 9 -4 5 -5 -3 -13 0 -15 6 -4
9 -6 10 -6 1z"/>
<path d="M880 1181 c0 -6 4 -13 10 -16 6 -3 7 1 4 9 -7 18 -14 21 -14 7z"/>
<path d="M940 1181 c0 -6 4 -13 10 -16 6 -3 7 1 4 9 -7 18 -14 21 -14 7z"/>
<path d="M2074 1179 c-3 -6 -1 -16 5 -22 9 -9 10 -7 5 7 -6 15 -4 17 6 11 9
-5 11 -4 6 3 -9 15 -13 15 -22 1z"/>
<path d="M516 1172 c-3 -5 1 -9 9 -9 8 0 15 4 15 9 0 4 -4 8 -9 8 -6 0 -12 -4
-15 -8z"/>
<path d="M1810 1170 c0 -5 5 -10 10 -10 6 0 10 5 10 10 0 6 -4 10 -10 10 -5 0
-10 -4 -10 -10z"/>
<path d="M116 1145 c-9 -26 -7 -32 5 -12 6 10 9 21 6 23 -2 3 -7 -2 -11 -11z"/>
<path d="M2662 1138 c7 -15 15 -23 17 -17 2 6 -4 18 -13 27 -15 15 -15 15 -4
-10z"/>
<path d="M2070 1129 c0 -5 5 -7 10 -4 6 3 10 8 10 11 0 2 -4 4 -10 4 -5 0 -10
-5 -10 -11z"/>
<path d="M2935 1130 c-3 -6 1 -7 9 -4 18 7 21 14 7 14 -6 0 -13 -4 -16 -10z"/>
<path d="M1815 1100 c0 -17 3 -30 8 -30 4 0 6 11 4 25 -4 36 -13 39 -12 5z"/>
<path d="M2946 1112 c-3 -5 1 -9 9 -9 8 0 12 4 9 9 -3 4 -7 8 -9 8 -2 0 -6 -4
-9 -8z"/>
<path d="M1290 1091 c0 -6 4 -13 10 -16 6 -3 7 1 4 9 -7 18 -14 21 -14 7z"/>
<path d="M2070 1089 c0 -5 5 -7 10 -4 6 3 10 8 10 11 0 2 -4 4 -10 4 -5 0 -10
-5 -10 -11z"/>
<path d="M1270 1050 c-13 -8 -12 -10 3 -10 9 0 17 5 17 10 0 12 -1 12 -20 0z"/>
<path d="M1805 1050 c3 -5 8 -10 11 -10 2 0 4 5 4 10 0 6 -5 10 -11 10 -5 0
-7 -4 -4 -10z"/>
<path d="M2070 1052 c0 -5 7 -9 15 -9 8 0 12 4 9 9 -3 4 -9 8 -15 8 -5 0 -9
-4 -9 -8z"/>
<path d="M2953 1035 c0 -8 4 -12 9 -9 5 3 6 10 3 15 -9 13 -12 11 -12 -6z"/>
<path d="M2660 1020 c6 -11 13 -20 16 -20 2 0 0 9 -6 20 -6 11 -13 20 -16 20
-2 0 0 -9 6 -20z"/>
<path d="M173 1015 c0 -8 4 -15 9 -15 4 0 8 4 8 9 0 6 -4 12 -8 15 -5 3 -9 -1
-9 -9z"/>
<path d="M2090 1021 c0 -6 4 -13 10 -16 6 -3 7 1 4 9 -7 18 -14 21 -14 7z"/>
<path d="M2070 1008 c0 -9 7 -19 16 -22 15 -6 15 -4 3 11 -7 10 -15 20 -16 22
-2 2 -3 -3 -3 -11z"/>
<path d="M1263 995 c0 -8 4 -12 9 -9 5 3 6 10 3 15 -9 13 -12 11 -12 -6z"/>
<path d="M1810 969 c0 -5 5 -7 10 -4 6 3 10 8 10 11 0 2 -4 4 -10 4 -5 0 -10
-5 -10 -11z"/>
<path d="M202 954 c10 -10 20 -16 22 -13 3 3 -5 11 -17 18 -21 13 -21 12 -5
-5z"/>
<path d="M256 937 c3 -10 9 -15 12 -12 3 3 0 11 -7 18 -10 9 -11 8 -5 -6z"/>
<path d="M2073 935 c0 -8 4 -12 9 -9 5 3 6 10 3 15 -9 13 -12 11 -12 -6z"/>
<path d="M291 923 c-1 -17 16 -25 25 -12 4 7 3 9 -4 5 -5 -3 -13 0 -15 6 -4 9
-6 10 -6 1z"/>
<path d="M410 901 c0 -7 -5 -9 -12 -5 -7 5 -8 3 -3 -5 5 -9 10 -10 18 -2 6 6
8 14 4 18 -4 3 -7 1 -7 -6z"/>
<path d="M517 895 c-4 -8 -3 -16 1 -19 4 -3 9 4 9 15 2 23 -3 25 -10 4z"/>
<path d="M620 903 c0 -6 8 -17 18 -24 16 -13 16 -13 2 6 -8 11 -16 22 -17 24
-2 2 -3 0 -3 -6z"/>
<path d="M757 895 c-4 -8 -3 -16 1 -19 4 -3 9 4 9 15 2 23 -3 25 -10 4z"/>
<path d="M940 900 c-9 -6 -10 -10 -3 -10 6 0 15 5 18 10 8 12 4 12 -15 0z"/>
<path d="M1029 897 c6 -8 7 -18 3 -22 -4 -5 -1 -5 6 -1 10 6 10 11 1 22 -6 8
-14 14 -16 14 -3 0 0 -6 6 -13z"/>
<path d="M1079 908 c-5 -18 -6 -38 -1 -34 7 8 12 36 6 36 -2 0 -4 -1 -5 -2z"/>
<path d="M660 889 c0 -5 5 -7 10 -4 6 3 10 8 10 11 0 2 -4 4 -10 4 -5 0 -10
-5 -10 -11z"/>
<path d="M993 885 c0 -8 4 -12 9 -9 4 3 8 9 8 15 0 5 -4 9 -8 9 -5 0 -9 -7 -9
-15z"/>
<path d="M2795 890 c3 -5 8 -10 11 -10 2 0 4 5 4 10 0 6 -5 10 -11 10 -5 0 -7
-4 -4 -10z"/>
<path d="M1133 875 c0 -8 4 -12 9 -9 5 3 6 10 3 15 -9 13 -12 11 -12 -6z"/>
<path d="M586 868 c3 -5 10 -6 15 -3 13 9 11 12 -6 12 -8 0 -12 -4 -9 -9z"/>
<path d="M826 868 c3 -5 10 -6 15 -3 13 9 11 12 -6 12 -8 0 -12 -4 -9 -9z"/>
<path d="M916 868 c3 -5 10 -6 15 -3 13 9 11 12 -6 12 -8 0 -12 -4 -9 -9z"/>
</g>
</svg>
