<?xml version="1.0" standalone="no"?>
<!DOCTYPE svg PUBLIC "-//W3C//DTD SVG 20010904//EN"
 "http://www.w3.org/TR/2001/REC-SVG-20010904/DTD/svg10.dtd">
<svg version="1.0" xmlns="http://www.w3.org/2000/svg"
 width="16.000000pt" height="16.000000pt" viewBox="0 0 16.000000 16.000000"
 preserveAspectRatio="xMidYMid meet">
<metadata>
Created by potrace 1.11, written by Peter Selinger 2001-2013
</metadata>
<g transform="translate(0.000000,16.000000) scale(0.004863,-0.004863)"
fill="#000000" stroke="none">
<path d="M1621 2590 c-4 -3 -8 -182 -8 -398 l0 -392 89 1 c75 1 88 3 88 17 0
15 8 92 35 332 3 25 8 72 11 105 3 33 8 71 9 85 14 132 19 190 20 220 l0 34
-118 1 c-65 0 -121 -2 -126 -5z"/>
<path d="M245 2452 c-3 -3 -30 -4 -60 -3 -30 1 -55 -1 -55 -6 0 -8 32 -131 96
-368 19 -71 48 -179 64 -240 45 -169 118 -446 130 -485 5 -19 29 -105 51 -190
23 -85 58 -218 79 -295 20 -77 40 -152 44 -166 l6 -26 207 -1 c115 0 215 2
225 4 11 3 22 29 34 77 9 40 16 72 14 72 -2 0 2 9 8 21 6 11 13 32 16 46 2 14
16 69 31 124 15 54 38 142 52 194 13 52 74 280 134 505 61 226 111 419 113
430 2 11 6 27 9 35 4 8 15 49 26 90 10 41 26 99 34 127 8 29 12 55 10 57 -3 2
-17 1 -31 -3 -15 -5 -36 -6 -47 -4 -38 8 -60 9 -68 5 -12 -6 -144 -5 -154 1
-26 16 -31 3 -112 -313 -28 -107 -82 -316 -121 -465 -39 -148 -86 -346 -106
-440 -40 -196 -43 -205 -53 -205 -4 0 -22 75 -40 168 -18 92 -49 228 -68 302
-19 74 -51 196 -69 270 -19 74 -37 142 -41 150 -3 8 -7 22 -8 30 -1 8 -28 114
-60 235 -32 121 -60 230 -63 243 -4 18 -11 22 -46 23 -22 1 -50 0 -61 -1 -25
-4 -52 -3 -87 3 -15 2 -30 2 -33 -1z"/>
<path d="M2723 1978 c-83 -8 -208 -56 -309 -118 -72 -44 -70 -45 -82 44 -6 53
-10 60 -34 67 -15 4 -30 4 -33 1 -8 -8 -124 -3 -138 5 -6 3 -7 1 -4 -5 5 -7
-6 -8 -31 -5 l-38 5 0 -648 1 -649 157 -1 c109 -1 158 2 161 10 2 6 3 205 2
441 0 237 3 439 8 450 9 22 59 55 83 55 8 0 14 5 14 10 0 6 3 9 8 8 4 -1 19 4
34 10 15 6 38 13 50 14 13 2 28 7 35 11 6 4 14 3 18 -3 4 -6 10 -8 15 -5 16
10 56 -16 76 -48 18 -30 19 -59 22 -493 l3 -461 160 0 160 -1 -3 542 -3 541
-28 60 c-29 61 -81 125 -103 125 -7 0 -14 5 -16 11 -7 20 -109 35 -185 27z"/>
</g>
</svg>
